<svg width="18" height="30" viewBox="0 0 18 30" fill="none" xmlns="http://www.w3.org/2000/svg">
<path d="M12.0033 15.0154L0.893103 26.25C0.475282 26.6678 0.28612 27.124 0.266369 27.75C0.246617 28.376 0.435779 28.9159 0.893103 29.3733C1.31092 29.7911 1.84269 30 2.48842 30C3.13414 30 3.66591 29.7911 4.08373 29.3733L16.8463 16.6107C17.3021 16.1549 17.53 15.6232 17.53 15.0154C17.53 14.4077 17.3021 13.8759 16.8463 13.4201L4.08373 0.657585C3.66591 0.239764 3.14326 0.020978 2.51577 0.00122643C1.88827 -0.0185251 1.34739 0.200261 0.893103 0.657585C0.475282 1.07541 0.266369 1.60718 0.266369 2.2529C0.266369 2.89862 0.475282 3.4304 0.893103 3.84822L12.0033 15.0154Z" fill="white"/>
</svg>
