<svg width="25" height="26" viewBox="0 0 25 26" fill="none" xmlns="http://www.w3.org/2000/svg">
<circle cx="12.5" cy="13" r="12.5" fill="white"/>
<path fill-rule="evenodd" clip-rule="evenodd" d="M9.16667 8.83333C9.16667 7.94928 9.51786 7.10143 10.143 6.47631C10.7681 5.85119 11.6159 5.5 12.5 5.5C13.3841 5.5 14.2319 5.85119 14.857 6.47631C15.4821 7.10143 15.8333 7.94928 15.8333 8.83333C15.8333 9.71739 15.4821 10.5652 14.857 11.1904C14.2319 11.8155 13.3841 12.1667 12.5 12.1667C11.6159 12.1667 10.7681 11.8155 10.143 11.1904C9.51786 10.5652 9.16667 9.71739 9.16667 8.83333ZM9.16667 13.8333C8.0616 13.8333 7.00179 14.2723 6.22039 15.0537C5.43899 15.8351 5 16.8949 5 18C5 18.663 5.26339 19.2989 5.73223 19.7678C6.20107 20.2366 6.83696 20.5 7.5 20.5H17.5C18.163 20.5 18.7989 20.2366 19.2678 19.7678C19.7366 19.2989 20 18.663 20 18C20 16.8949 19.561 15.8351 18.7796 15.0537C17.9982 14.2723 16.9384 13.8333 15.8333 13.8333H9.16667Z" fill="#21A038"/>
</svg>
