<svg width="21" height="14" viewBox="0 0 21 14" fill="none" xmlns="http://www.w3.org/2000/svg">
<path d="M2.04104 13.3333H19.8188C20.4299 13.3333 20.9299 12.8333 20.9299 12.2222C20.9299 11.6111 20.4299 11.1111 19.8188 11.1111H2.04104C1.42993 11.1111 0.929932 11.6111 0.929932 12.2222C0.929932 12.8333 1.42993 13.3333 2.04104 13.3333ZM2.04104 7.77778H19.8188C20.4299 7.77778 20.9299 7.27778 20.9299 6.66667C20.9299 6.05556 20.4299 5.55556 19.8188 5.55556H2.04104C1.42993 5.55556 0.929932 6.05556 0.929932 6.66667C0.929932 7.27778 1.42993 7.77778 2.04104 7.77778ZM0.929932 1.11111C0.929932 1.72222 1.42993 2.22222 2.04104 2.22222H19.8188C20.4299 2.22222 20.9299 1.72222 20.9299 1.11111C20.9299 0.5 20.4299 0 19.8188 0H2.04104C1.42993 0 0.929932 0.5 0.929932 1.11111Z" fill="white"/>
</svg>
